<svg xmlns="http://www.w3.org/2000/svg" viewBox="0 0 699.19 800">
	<defs>
		<style>.cls-1{fill:#3b8848;}.cls-2{fill:#80b160;}.cls-3{fill:#0a603e;}</style>
	</defs>
	<path class="cls-1"
	      d="M695.34,201c7.34,40.47,1.68,81.38,3,122,0,13.7-11.84,16.26-20.24,21.21-60.61,35.34-120.87,71.3-182.63,104.52-22.62,12.2-29.78,26.51-29.16,51.52,1.68,69.18,0,138.45,1.15,207.64a37.38,37.38,0,0,1-23.06,39c-27.92,14.31-54.52,30.75-82,46.65-6.8,3.8-13.78,11.58-21.73,1.42,8.83-6.89,6.62-17,6.62-26.07V397.81c5.57-2.56,11.49-4.68,16.79-7.69Z"/>
	<path class="cls-2"
	      d="M695.34,201,364.09,390.21c-5.3,3-11.22,5.13-16.79,7.69-58.58-34.28-116.54-69.54-175.83-102.41C115,264.21,62,227.1,2,202c32.08-28.89,71.93-45.06,108.42-66.8,11.13-6.62,19.88,2.65,28.62,7.69,61,34.81,122.11,69.27,182.37,105.23,19.18,11.58,34.2,13.17,54.26,1,60-36.41,121.57-70.07,181.92-106,16.35-9.72,29.69-11.84,45.95-.53C633.23,163.22,668.92,174.8,695.34,201Z"/>
	<path class="cls-3"
	      d="M2,202c60,25.09,113,62.2,169.47,93.48,59.29,32.87,117.25,68.13,175.83,102.23v371.1c0,8.84,2.65,19.18-6.62,26.07a11.71,11.71,0,0,1-3-.89c-33.49-19.26-76.52-31.54-97.81-60s-5.48-74.75-6.63-113.1q-1.84-66.09,0-132.53a33.83,33.83,0,0,0-20.5-34.46c-62.38-35-124.23-71.93-187.84-107C7.57,337.29-1.27,327,.15,305.74,2.89,271.28,1.65,236.56,2,202Z"/>
	<path class="cls-1"
	      d="M698.61,464.7V584.24a22.92,22.92,0,0,1-12.19,23.07c-33.75,18.55-66.89,38-106,60.34V540.15c0-7.77,5.3-10.78,10.78-13.87Z"/>
	<path class="cls-2"
	      d="M232.53,64.26c37.73-21.82,70.68-41,103.9-60.26a24,24,0,0,1,26.51,0c27.92,16.44,55.93,32.69,84.47,48.07,18.47,10,12.9,17.67-1,25.18C418.25,93.15,390,109,361.88,125.14a21.1,21.1,0,0,1-23.41,1C304.63,106.14,270.7,86.62,232.53,64.26Z"/>
	<path class="cls-3"
	      d="M.94,464.7c38.7,22.35,72.81,42.23,107.09,61.85a20.31,20.31,0,0,1,11.75,20V668.45C79.67,645.12,43.71,624.71,8,603.86c-8.84-5-7.07-14.31-7.07-22.71Z"/>
</svg>